<mxfile host="app.diagrams.net" agent="Mozilla/5.0 (Windows NT 10.0; Win64; x64) AppleWebKit/537.36 (KHTML, like Gecko) Chrome/128.0.0.0 Safari/537.36 Edg/128.0.0.0" version="24.7.7">
  <diagram name="Page-1" id="VDV-nvPSyXl6gtsV9bIT">
    <mxGraphModel dx="2418" dy="2650" grid="1" gridSize="10" guides="1" tooltips="1" connect="1" arrows="1" fold="1" page="1" pageScale="1" pageWidth="850" pageHeight="1100" math="0" shadow="0">
      <root>
        <mxCell id="0" />
        <mxCell id="1" parent="0" />
        <mxCell id="3-CJCpdt-LU1McN5Vxmz-24" value="&lt;b&gt;Source stage&lt;/b&gt;" style="rounded=0;whiteSpace=wrap;html=1;fillColor=default;verticalAlign=top;align=left;shadow=1;" vertex="1" parent="1">
          <mxGeometry x="-73.25" y="60" width="383.25" height="197.5" as="geometry" />
        </mxCell>
        <mxCell id="3-CJCpdt-LU1McN5Vxmz-1" value="Bucket 1&amp;nbsp;&lt;div&gt;&lt;b&gt;(Source location)&lt;/b&gt;&lt;/div&gt;" style="sketch=0;outlineConnect=0;fontColor=#232F3E;gradientColor=none;fillColor=#7AA116;strokeColor=none;dashed=0;verticalLabelPosition=bottom;verticalAlign=top;align=center;html=1;fontSize=12;fontStyle=0;aspect=fixed;pointerEvents=1;shape=mxgraph.aws4.bucket;fontFamily=Roboto Mono;fontSource=https%3A%2F%2Ffonts.googleapis.com%2Fcss%3Ffamily%3DRoboto%2BMono;" vertex="1" parent="1">
          <mxGeometry x="130" y="290" width="48.08" height="50" as="geometry" />
        </mxCell>
        <mxCell id="3-CJCpdt-LU1McN5Vxmz-4" value="Bucket 2&amp;nbsp;&lt;div&gt;&lt;b&gt;(Deployment location)&lt;/b&gt;&lt;/div&gt;" style="sketch=0;outlineConnect=0;fontColor=#232F3E;gradientColor=none;fillColor=#7AA116;strokeColor=none;dashed=0;verticalLabelPosition=bottom;verticalAlign=top;align=center;html=1;fontSize=12;fontStyle=0;aspect=fixed;pointerEvents=1;shape=mxgraph.aws4.bucket;fontFamily=Roboto Mono;fontSource=https%3A%2F%2Ffonts.googleapis.com%2Fcss%3Ffamily%3DRoboto%2BMono;" vertex="1" parent="1">
          <mxGeometry x="351.92" y="290" width="48.08" height="50" as="geometry" />
        </mxCell>
        <mxCell id="3-CJCpdt-LU1McN5Vxmz-8" value="" style="group" vertex="1" connectable="0" parent="1">
          <mxGeometry x="310" y="435" width="350" height="230" as="geometry" />
        </mxCell>
        <mxCell id="3-CJCpdt-LU1McN5Vxmz-7" value="&lt;div&gt;{&lt;/div&gt;&lt;div&gt;&lt;span style=&quot;white-space: normal;&quot;&gt;&lt;span style=&quot;white-space:pre&quot;&gt;&#x9;&lt;/span&gt;&quot;Version&quot;: &quot;2012-10-17&quot;,&lt;/span&gt;&lt;/div&gt;&lt;div&gt;&lt;span style=&quot;white-space: normal;&quot;&gt;&lt;span style=&quot;white-space:pre&quot;&gt;&#x9;&lt;/span&gt;&quot;Statement&quot;: [&lt;/span&gt;&lt;/div&gt;&lt;div&gt;&lt;span style=&quot;white-space: normal;&quot;&gt;&lt;span style=&quot;white-space:pre&quot;&gt;&#x9;&#x9;&lt;/span&gt;{&lt;/span&gt;&lt;/div&gt;&lt;div&gt;&lt;span style=&quot;white-space: normal;&quot;&gt;&lt;span style=&quot;white-space:pre&quot;&gt;&#x9;&#x9;&#x9;&lt;/span&gt;&quot;Sid&quot;: &quot;PublicReadGetObject&quot;,&lt;/span&gt;&lt;/div&gt;&lt;div&gt;&lt;span style=&quot;white-space: normal;&quot;&gt;&lt;span style=&quot;white-space:pre&quot;&gt;&#x9;&#x9;&#x9;&lt;/span&gt;&quot;Principal&quot;: &quot;*&quot;,&lt;/span&gt;&lt;/div&gt;&lt;div&gt;&lt;span style=&quot;white-space: normal;&quot;&gt;&lt;span style=&quot;white-space:pre&quot;&gt;&#x9;&#x9;&#x9;&lt;/span&gt;&quot;Effect&quot;: &quot;Allow&quot;,&lt;/span&gt;&lt;/div&gt;&lt;div&gt;&lt;span style=&quot;white-space: normal;&quot;&gt;&lt;span style=&quot;white-space:pre&quot;&gt;&#x9;&#x9;&#x9;&lt;/span&gt;&quot;Action&quot;: [&lt;/span&gt;&lt;/div&gt;&lt;div&gt;&lt;span style=&quot;white-space: normal;&quot;&gt;&lt;span style=&quot;white-space:pre&quot;&gt;&#x9;&#x9;&#x9;&lt;/span&gt;&amp;nbsp; &amp;nbsp; &quot;s3:GetObject&quot;&lt;/span&gt;&lt;/div&gt;&lt;div&gt;&lt;span style=&quot;white-space: normal;&quot;&gt;&lt;span style=&quot;white-space:pre&quot;&gt;&#x9;&#x9;&#x9;&lt;/span&gt;],&lt;/span&gt;&lt;/div&gt;&lt;div&gt;&lt;span style=&quot;white-space: normal;&quot;&gt;&lt;span style=&quot;white-space:pre&quot;&gt;&#x9;&#x9;&#x9;&lt;/span&gt;&quot;Resource&quot;: [&lt;/span&gt;&lt;/div&gt;&lt;div&gt;&lt;span style=&quot;white-space: normal;&quot;&gt;&lt;span style=&quot;white-space:pre&quot;&gt;&#x9;&#x9;&#x9;&lt;/span&gt;&amp;nbsp; &amp;nbsp; &quot;arn:aws:s3:::bucket-devops-prod3167/*&quot;&lt;/span&gt;&lt;/div&gt;&lt;div&gt;&lt;span style=&quot;white-space: normal;&quot;&gt;&lt;span style=&quot;white-space:pre&quot;&gt;&#x9;&#x9;&#x9;&lt;/span&gt;]&lt;/span&gt;&lt;/div&gt;&lt;div&gt;&lt;span style=&quot;white-space: normal;&quot;&gt;&lt;span style=&quot;white-space:pre&quot;&gt;&#x9;&#x9;&lt;/span&gt;}&lt;/span&gt;&lt;/div&gt;&lt;div&gt;&lt;span style=&quot;white-space: normal;&quot;&gt;&lt;span style=&quot;white-space:pre&quot;&gt;&#x9;&lt;/span&gt;]&lt;/span&gt;&lt;/div&gt;&lt;div&gt;}&lt;/div&gt;" style="text;html=1;align=left;verticalAlign=middle;whiteSpace=wrap;rounded=0;fillColor=#d5e8d4;strokeColor=#82b366;" vertex="1" parent="3-CJCpdt-LU1McN5Vxmz-8">
          <mxGeometry width="350" height="230" as="geometry" />
        </mxCell>
        <mxCell id="3-CJCpdt-LU1McN5Vxmz-6" value="" style="sketch=0;outlineConnect=0;fontColor=#232F3E;gradientColor=none;fillColor=#7AA116;strokeColor=none;dashed=0;verticalLabelPosition=bottom;verticalAlign=top;align=center;html=1;fontSize=12;fontStyle=0;aspect=fixed;pointerEvents=1;shape=mxgraph.aws4.policy;" vertex="1" parent="3-CJCpdt-LU1McN5Vxmz-8">
          <mxGeometry x="10.000000000000014" y="80" width="54.93" height="47.18" as="geometry" />
        </mxCell>
        <mxCell id="3-CJCpdt-LU1McN5Vxmz-10" value="&lt;div&gt;&lt;br&gt;&lt;/div&gt;&lt;div&gt;Static website hosting&lt;/div&gt;&lt;div&gt;&lt;br&gt;&lt;/div&gt;" style="html=1;shadow=0;dashed=0;shape=mxgraph.bootstrap.radioButton2;labelPosition=right;verticalLabelPosition=middle;align=left;verticalAlign=middle;gradientColor=none;fillColor=#3399FF;checked=0;spacing=5;checkedFill=#0085FC;checkedStroke=#ffffff;" vertex="1" parent="1">
          <mxGeometry x="310" y="390" width="10" height="10" as="geometry" />
        </mxCell>
        <mxCell id="3-CJCpdt-LU1McN5Vxmz-17" value="&lt;div&gt;&lt;br&gt;&lt;/div&gt;&lt;div&gt;&lt;div&gt;Block public&amp;nbsp;&lt;span style=&quot;background-color: initial;&quot;&gt;access&lt;/span&gt;&lt;/div&gt;&lt;/div&gt;&lt;div&gt;&lt;br&gt;&lt;/div&gt;" style="html=1;shadow=0;dashed=0;shape=mxgraph.bootstrap.radioButton2;labelPosition=right;verticalLabelPosition=middle;align=left;verticalAlign=middle;gradientColor=none;fillColor=#FFFFFF;checked=0;spacing=5;checkedFill=#0085FC;checkedStroke=#ffffff;" vertex="1" parent="1">
          <mxGeometry x="310" y="412.5" width="10" height="10" as="geometry" />
        </mxCell>
        <mxCell id="3-CJCpdt-LU1McN5Vxmz-21" value="Source provider" style="edgeStyle=orthogonalEdgeStyle;rounded=0;orthogonalLoop=1;jettySize=auto;html=1;exitX=0;exitY=0.5;exitDx=0;exitDy=0;exitPerimeter=0;" edge="1" parent="1" source="3-CJCpdt-LU1McN5Vxmz-19">
          <mxGeometry x="0.0526" y="-14" relative="1" as="geometry">
            <mxPoint x="29.999999999999993" y="124" as="targetPoint" />
            <mxPoint x="220" y="124" as="sourcePoint" />
            <mxPoint as="offset" />
          </mxGeometry>
        </mxCell>
        <mxCell id="3-CJCpdt-LU1McN5Vxmz-19" value="CodePipeline" style="sketch=0;points=[[0,0,0],[0.25,0,0],[0.5,0,0],[0.75,0,0],[1,0,0],[0,1,0],[0.25,1,0],[0.5,1,0],[0.75,1,0],[1,1,0],[0,0.25,0],[0,0.5,0],[0,0.75,0],[1,0.25,0],[1,0.5,0],[1,0.75,0]];outlineConnect=0;fontColor=#232F3E;fillColor=#C925D1;strokeColor=#ffffff;dashed=0;verticalLabelPosition=bottom;verticalAlign=top;align=center;html=1;fontSize=12;fontStyle=0;aspect=fixed;shape=mxgraph.aws4.resourceIcon;resIcon=mxgraph.aws4.codepipeline;" vertex="1" parent="1">
          <mxGeometry x="172" y="100" width="48" height="48" as="geometry" />
        </mxCell>
        <mxCell id="3-CJCpdt-LU1McN5Vxmz-23" style="edgeStyle=orthogonalEdgeStyle;rounded=0;orthogonalLoop=1;jettySize=auto;html=1;" edge="1" parent="1" source="3-CJCpdt-LU1McN5Vxmz-22">
          <mxGeometry relative="1" as="geometry">
            <mxPoint x="120" y="100" as="targetPoint" />
          </mxGeometry>
        </mxCell>
        <mxCell id="3-CJCpdt-LU1McN5Vxmz-22" value="This is where you stored your input artifacts for your pipeline. Choose the provider and then provide the connection details." style="text;html=1;align=center;verticalAlign=middle;whiteSpace=wrap;rounded=0;strokeColor=#d6b656;dashed=1;fillColor=#fff2cc;" vertex="1" parent="1">
          <mxGeometry x="-34.62000000000001" y="-80" width="310" height="50" as="geometry" />
        </mxCell>
        <mxCell id="3-CJCpdt-LU1McN5Vxmz-25" value="&lt;b&gt;Build stage*&lt;/b&gt;" style="rounded=0;whiteSpace=wrap;html=1;fillColor=default;verticalAlign=top;align=left;shadow=1;" vertex="1" parent="1">
          <mxGeometry x="476.75" y="60" width="383.25" height="197.5" as="geometry" />
        </mxCell>
        <mxCell id="3-CJCpdt-LU1McN5Vxmz-26" value="CodeBuild" style="sketch=0;points=[[0,0,0],[0.25,0,0],[0.5,0,0],[0.75,0,0],[1,0,0],[0,1,0],[0.25,1,0],[0.5,1,0],[0.75,1,0],[1,1,0],[0,0.25,0],[0,0.5,0],[0,0.75,0],[1,0.25,0],[1,0.5,0],[1,0.75,0]];outlineConnect=0;fontColor=#232F3E;fillColor=#6666FF;strokeColor=#ffffff;dashed=0;verticalLabelPosition=bottom;verticalAlign=top;align=center;html=1;fontSize=12;fontStyle=0;aspect=fixed;shape=mxgraph.aws4.resourceIcon;resIcon=mxgraph.aws4.codebuild;" vertex="1" parent="1">
          <mxGeometry x="516.75" y="110" width="78" height="78" as="geometry" />
        </mxCell>
        <mxCell id="3-CJCpdt-LU1McN5Vxmz-27" value="or" style="text;html=1;align=center;verticalAlign=middle;whiteSpace=wrap;rounded=0;" vertex="1" parent="1">
          <mxGeometry x="606.75" y="134" width="60" height="30" as="geometry" />
        </mxCell>
        <mxCell id="3-CJCpdt-LU1McN5Vxmz-28" value="Jenkins" style="whiteSpace=wrap;html=1;aspect=fixed;" vertex="1" parent="1">
          <mxGeometry x="676.75" y="109" width="80" height="80" as="geometry" />
        </mxCell>
        <mxCell id="3-CJCpdt-LU1McN5Vxmz-29" value="&lt;b&gt;Deploy stage&lt;/b&gt;" style="rounded=0;whiteSpace=wrap;html=1;fillColor=default;verticalAlign=top;align=left;shadow=1;" vertex="1" parent="1">
          <mxGeometry x="1060" y="60" width="383.25" height="197.5" as="geometry" />
        </mxCell>
        <mxCell id="3-CJCpdt-LU1McN5Vxmz-30" value="Bucket 2" style="sketch=0;outlineConnect=0;fontColor=#232F3E;gradientColor=none;fillColor=#7AA116;strokeColor=none;dashed=0;verticalLabelPosition=bottom;verticalAlign=top;align=center;html=1;fontSize=12;fontStyle=0;aspect=fixed;pointerEvents=1;shape=mxgraph.aws4.bucket;fontFamily=Roboto Mono;fontSource=https%3A%2F%2Ffonts.googleapis.com%2Fcss%3Ffamily%3DRoboto%2BMono;" vertex="1" parent="1">
          <mxGeometry x="1097" y="114" width="48.08" height="50" as="geometry" />
        </mxCell>
        <mxCell id="3-CJCpdt-LU1McN5Vxmz-32" value="Deploy provider" style="edgeStyle=orthogonalEdgeStyle;rounded=0;orthogonalLoop=1;jettySize=auto;html=1;" edge="1" parent="1">
          <mxGeometry x="-0.21" y="-9" relative="1" as="geometry">
            <mxPoint x="1297.01" y="138.66" as="sourcePoint" />
            <mxPoint x="1145.0842056880858" y="138.6944827586207" as="targetPoint" />
            <mxPoint as="offset" />
          </mxGeometry>
        </mxCell>
        <mxCell id="3-CJCpdt-LU1McN5Vxmz-31" value="CodePipeline" style="sketch=0;points=[[0,0,0],[0.25,0,0],[0.5,0,0],[0.75,0,0],[1,0,0],[0,1,0],[0.25,1,0],[0.5,1,0],[0.75,1,0],[1,1,0],[0,0.25,0],[0,0.5,0],[0,0.75,0],[1,0.25,0],[1,0.5,0],[1,0.75,0]];outlineConnect=0;fontColor=#232F3E;fillColor=#C925D1;strokeColor=#ffffff;dashed=0;verticalLabelPosition=bottom;verticalAlign=top;align=center;html=1;fontSize=12;fontStyle=0;aspect=fixed;shape=mxgraph.aws4.resourceIcon;resIcon=mxgraph.aws4.codepipeline;" vertex="1" parent="1">
          <mxGeometry x="1307" y="116" width="48" height="48" as="geometry" />
        </mxCell>
        <mxCell id="3-CJCpdt-LU1McN5Vxmz-33" value="&lt;div&gt;Choose how you deploy to instances. Choose the provider, and then provide the configuration details for that provider.&lt;/div&gt;&lt;div&gt;&lt;br&gt;&lt;/div&gt;" style="text;html=1;align=center;verticalAlign=middle;whiteSpace=wrap;rounded=0;strokeColor=#d6b656;dashed=1;fillColor=#fff2cc;" vertex="1" parent="1">
          <mxGeometry x="1060" y="-90" width="310" height="60" as="geometry" />
        </mxCell>
        <mxCell id="3-CJCpdt-LU1McN5Vxmz-34" style="edgeStyle=orthogonalEdgeStyle;rounded=0;orthogonalLoop=1;jettySize=auto;html=1;" edge="1" parent="1" source="3-CJCpdt-LU1McN5Vxmz-33">
          <mxGeometry relative="1" as="geometry">
            <mxPoint x="1215" y="110" as="targetPoint" />
          </mxGeometry>
        </mxCell>
        <mxCell id="3-CJCpdt-LU1McN5Vxmz-35" value="app" style="image;html=1;image=img/lib/clip_art/general/Full_Folder_128x128.png" vertex="1" parent="1">
          <mxGeometry x="1105.08" y="189" width="40" height="31" as="geometry" />
        </mxCell>
        <mxCell id="3-CJCpdt-LU1McN5Vxmz-38" value="&lt;div&gt;Bucket&amp;nbsp;&lt;span style=&quot;background-color: initial;&quot;&gt;Versioning&lt;/span&gt;&lt;/div&gt;" style="html=1;shadow=0;dashed=0;shape=mxgraph.bootstrap.radioButton2;labelPosition=right;verticalLabelPosition=middle;align=left;verticalAlign=middle;gradientColor=none;fillColor=#3399FF;checked=0;spacing=5;checkedFill=#0085FC;checkedStroke=#ffffff;" vertex="1" parent="1">
          <mxGeometry x="100" y="390" width="10" height="10" as="geometry" />
        </mxCell>
        <mxCell id="3-CJCpdt-LU1McN5Vxmz-39" value="Bucket 1" style="sketch=0;outlineConnect=0;fontColor=#232F3E;gradientColor=none;fillColor=#7AA116;strokeColor=none;dashed=0;verticalLabelPosition=bottom;verticalAlign=top;align=center;html=1;fontSize=12;fontStyle=0;aspect=fixed;pointerEvents=1;shape=mxgraph.aws4.bucket;fontFamily=Roboto Mono;fontSource=https%3A%2F%2Ffonts.googleapis.com%2Fcss%3Ffamily%3DRoboto%2BMono;" vertex="1" parent="1">
          <mxGeometry x="-34.62000000000001" y="98" width="48.08" height="50" as="geometry" />
        </mxCell>
        <mxCell id="3-CJCpdt-LU1McN5Vxmz-40" value="Transition" style="shape=flexArrow;endArrow=classic;html=1;rounded=0;endWidth=13.68421052631579;endSize=14.414035087719297;width=15.789473684210526;" edge="1" parent="1">
          <mxGeometry x="-0.1667" width="50" height="50" relative="1" as="geometry">
            <mxPoint x="870" y="160" as="sourcePoint" />
            <mxPoint x="1050" y="159" as="targetPoint" />
            <mxPoint as="offset" />
          </mxGeometry>
        </mxCell>
        <mxCell id="3-CJCpdt-LU1McN5Vxmz-43" style="edgeStyle=orthogonalEdgeStyle;rounded=0;orthogonalLoop=1;jettySize=auto;html=1;" edge="1" parent="1">
          <mxGeometry relative="1" as="geometry">
            <mxPoint x="940" y="170" as="targetPoint" />
            <mxPoint x="940" y="320" as="sourcePoint" />
          </mxGeometry>
        </mxCell>
        <mxCell id="3-CJCpdt-LU1McN5Vxmz-41" value="&lt;div&gt;Transitions, connect stages&lt;/div&gt;" style="text;html=1;align=center;verticalAlign=middle;whiteSpace=wrap;rounded=0;strokeColor=#d6b656;dashed=1;fillColor=#fff2cc;" vertex="1" parent="1">
          <mxGeometry x="860" y="340" width="160" height="30" as="geometry" />
        </mxCell>
        <mxCell id="3-CJCpdt-LU1McN5Vxmz-46" style="edgeStyle=orthogonalEdgeStyle;rounded=0;orthogonalLoop=1;jettySize=auto;html=1;" edge="1" parent="1" source="3-CJCpdt-LU1McN5Vxmz-44" target="3-CJCpdt-LU1McN5Vxmz-39">
          <mxGeometry relative="1" as="geometry">
            <Array as="points">
              <mxPoint x="-210" y="123" />
            </Array>
          </mxGeometry>
        </mxCell>
        <mxCell id="3-CJCpdt-LU1McN5Vxmz-44" value="When I upload file" style="text;html=1;align=center;verticalAlign=middle;whiteSpace=wrap;rounded=0;" vertex="1" parent="1">
          <mxGeometry x="-262.87" y="116" width="60" height="30" as="geometry" />
        </mxCell>
        <mxCell id="3-CJCpdt-LU1McN5Vxmz-47" value="" style="sketch=0;outlineConnect=0;fontColor=#232F3E;gradientColor=none;fillColor=#232F3D;strokeColor=none;dashed=0;verticalLabelPosition=bottom;verticalAlign=top;align=center;html=1;fontSize=12;fontStyle=0;aspect=fixed;pointerEvents=1;shape=mxgraph.aws4.user;" vertex="1" parent="1">
          <mxGeometry x="-250" y="79.75" width="34.25" height="34.25" as="geometry" />
        </mxCell>
        <mxCell id="3-CJCpdt-LU1McN5Vxmz-51" value="Transition" style="shape=flexArrow;endArrow=classic;html=1;rounded=0;endWidth=13.68421052631579;endSize=14.414035087719297;width=15.789473684210526;" edge="1" parent="1">
          <mxGeometry x="-0.1667" width="50" height="50" relative="1" as="geometry">
            <mxPoint x="320" y="147" as="sourcePoint" />
            <mxPoint x="470" y="146" as="targetPoint" />
            <mxPoint as="offset" />
          </mxGeometry>
        </mxCell>
      </root>
    </mxGraphModel>
  </diagram>
</mxfile>
